name C:\Users\tom_v\MusculoskeletalSpecialization\ResultsSprinting\Case_4\motion.mot
datacolumns 32
datarows 5
range 0.40988119 0.43174152
endheader 
time	pelvis_tilt	pelvis_list	pelvis_rotation	pelvis_tx	pelvis_ty	pelvis_tz	hip_flexion_r	hip_adduction_r	hip_rotation_r	knee_angle_r	ankle_angle_r	subtalar_angle_r	mtp_angle_r	hip_flexion_l	hip_adduction_l	hip_rotation_l	knee_angle_l	ankle_angle_l	subtalar_angle_l	mtp_angle_l	lumbar_extension	lumbar_bending	lumbar_rotation	arm_flex_r	arm_add_r	arm_rot_r	elbow_flex_r	arm_flex_l	arm_add_l	arm_rot_l	elbow_flex_l	
          0.40988119	        -11.14788338	         -2.22644709	         -0.62571314	          1.35517753	          0.88810514	         -0.00447336	         37.73134493	          1.97540468	         -4.01485317	        -71.63248972	          9.54259196	          3.00120705	          1.91016858	         11.86569024	          1.59648282	          4.86619525	        -37.80610643	         13.69531346	          0.25335729	         29.77061018	         -2.28372210	          1.30864572	         -1.33421113	        -14.17417917	        -22.98348740	          7.60050423	         97.77301833	         28.36974561	         -3.39943773	         16.99172380	          0.12395273	
          0.41534627	        -11.17356741	         -2.37021164	         -0.61282168	          1.37358610	          0.89011183	         -0.00459032	         38.88946584	          2.18198079	         -4.05012794	        -70.99332796	          9.51605769	          2.55190964	          1.78039231	         10.39881059	          1.22196422	          4.53775631	        -36.95151800	         11.99271873	          0.79790630	         31.12612986	         -2.28456626	          1.65494115	         -1.48523097	        -15.81942272	        -23.39448694	          6.33133446	        100.60049962	         28.54504159	         -3.07733740	         16.98238282	          0.02123375	
          0.42081135	        -11.19724083	         -2.49742680	         -0.60349061	          1.39205763	          0.89204310	         -0.00469158	         39.98552208	          2.37204755	         -4.06081908	        -70.21425604	          9.39181872	          2.11727496	          1.65979062	          8.97233825	          0.86526628	          4.21485427	        -36.15932113	         10.26940081	          1.40054844	         32.24210190	         -2.27846367	          1.98606507	         -1.63232127	        -17.38339293	        -23.74230208	          5.06619516	        103.18456687	         28.66166782	         -2.78653320	         17.08562167	          0.00004148	
          0.42627644	        -11.21893674	         -2.60474362	         -0.59687729	          1.41056976	          0.89387577	         -0.00478162	         41.01966637	          2.54212207	         -4.04546444	        -69.29938429	          9.17820156	          1.69624368	          1.54722320	          7.60363571	          0.53088616	          3.90090522	        -35.46039995	          8.57307711	          2.06746471	         33.02386090	         -2.26847741	          2.29773291	         -1.77424812	        -18.85334094	        -24.03345802	          3.81935979	        105.52200454	         28.73729894	         -2.51915872	         17.28729383	          0.01966043	
          0.43174152	        -11.23863330	         -2.69164451	         -0.59332379	          1.42910936	          0.89559464	         -0.00486200	         41.99232874	          2.69232129	         -4.00342810	        -68.25808054	          8.88157632	          1.28807141	          1.44233639	          6.30272880	          0.22022153	          3.59818903	        -34.86615532	          6.87794156	          2.78268594	         33.51555334	         -2.25648620	          2.58901679	         -1.91024820	        -20.21617599	        -24.27522541	          2.60782966	        107.60856278	         28.78250884	         -2.27014164	         17.56438313	          0.05327884	
